<svg xmlns="http://www.w3.org/2000/svg" xmlns:xlink="http://www.w3.org/1999/xlink" height="256" width="256"><g stroke="black"><line x1="135.68" y1="33.28" x2="140.8" y2="33.28"></line><line x1="115.2" y1="33.28" x2="120.32" y2="33.28"></line><line x1="122.88" y1="51.2" x2="133.12" y2="51.2"></line><line x1="147.2" y1="64.0" x2="140.8" y2="64.0"></line><line x1="147.2" y1="12.8" x2="147.2" y2="64.0"></line><line x1="108.8" y1="12.8" x2="147.2" y2="12.8"></line><line x1="108.8" y1="64.0" x2="108.8" y2="12.8"></line><line x1="115.2" y1="64.0" x2="108.8" y2="64.0"></line><line x1="140.8" y1="76.8" x2="140.8" y2="64.0"></line><line x1="115.2" y1="76.8" x2="115.2" y2="64.0"></line><line x1="204.8" y1="89.6" x2="140.8" y2="76.8"></line><line x1="204.8" y1="115.2" x2="204.8" y2="89.6"></line><line x1="153.6" y1="102.4" x2="204.8" y2="115.2"></line><line x1="51.2" y1="64.0" x2="115.2" y2="76.8"></line><line x1="51.2" y1="89.6" x2="51.2" y2="64.0"></line><line x1="102.4" y1="102.4" x2="51.2" y2="89.6"></line><line x1="153.6" y1="153.6" x2="153.6" y2="102.4"></line><line x1="102.4" y1="153.6" x2="102.4" y2="102.4"></line><line x1="179.2" y1="256.0" x2="153.6" y2="153.6"></line><line x1="153.6" y1="256.0" x2="128.0" y2="179.2"></line><line x1="102.4" y1="256.0" x2="128.0" y2="179.2"></line><line x1="76.8" y1="256.0" x2="102.4" y2="153.6"></line></g></svg>